<svg width="24" height="23" viewBox="0 0 24 23" fill="none" xmlns="http://www.w3.org/2000/svg">
<path d="M12 2.11816C14.717 2.11816 15.056 2.12736 16.122 2.17333C17.187 2.21931 17.912 2.37286 18.55 2.6009C19.21 2.83445 19.766 3.15075 20.322 3.66107C20.8305 4.12071 21.224 4.67672 21.475 5.2904C21.722 5.87611 21.89 6.54366 21.94 7.52291C21.987 8.50309 22 8.8148 22 11.313C22 13.8113 21.99 14.123 21.94 15.1032C21.89 16.0824 21.722 16.7491 21.475 17.3357C21.2247 17.9497 20.8311 18.5058 20.322 18.965C19.822 19.4324 19.2173 19.7942 18.55 20.0252C17.913 20.2523 17.187 20.4068 16.122 20.4528C15.056 20.496 14.717 20.5079 12 20.5079C9.283 20.5079 8.944 20.4987 7.878 20.4528C6.813 20.4068 6.088 20.2523 5.45 20.0252C4.78233 19.7948 4.17753 19.433 3.678 18.965C3.16941 18.5055 2.77593 17.9494 2.525 17.3357C2.277 16.75 2.11 16.0824 2.06 15.1032C2.013 14.123 2 13.8113 2 11.313C2 8.8148 2.01 8.50309 2.06 7.52291C2.11 6.54274 2.277 5.87703 2.525 5.2904C2.77524 4.67634 3.1688 4.12018 3.678 3.66107C4.17767 3.19326 4.78243 2.83144 5.45 2.6009C6.088 2.37286 6.812 2.21931 7.878 2.17333C8.944 2.13012 9.283 2.11816 12 2.11816ZM12 6.7156C10.6739 6.7156 9.40215 7.19998 8.46447 8.06216C7.52678 8.92435 7 10.0937 7 11.313C7 12.5324 7.52678 13.7017 8.46447 14.5639C9.40215 15.4261 10.6739 15.9105 12 15.9105C13.3261 15.9105 14.5979 15.4261 15.5355 14.5639C16.4732 13.7017 17 12.5324 17 11.313C17 10.0937 16.4732 8.92435 15.5355 8.06216C14.5979 7.19998 13.3261 6.7156 12 6.7156ZM18.5 6.48573C18.5 6.1809 18.3683 5.88856 18.1339 5.67301C17.8995 5.45747 17.5815 5.33637 17.25 5.33637C16.9185 5.33637 16.6005 5.45747 16.3661 5.67301C16.1317 5.88856 16 6.1809 16 6.48573C16 6.79056 16.1317 7.08291 16.3661 7.29845C16.6005 7.514 16.9185 7.63509 17.25 7.63509C17.5815 7.63509 17.8995 7.514 18.1339 7.29845C18.3683 7.08291 18.5 6.79056 18.5 6.48573ZM12 8.55458C12.7956 8.55458 13.5587 8.8452 14.1213 9.36252C14.6839 9.87983 15 10.5815 15 11.313C15 12.0446 14.6839 12.7463 14.1213 13.2636C13.5587 13.7809 12.7956 14.0715 12 14.0715C11.2044 14.0715 10.4413 13.7809 9.87868 13.2636C9.31607 12.7463 9 12.0446 9 11.313C9 10.5815 9.31607 9.87983 9.87868 9.36252C10.4413 8.8452 11.2044 8.55458 12 8.55458Z" fill="white"/>
</svg>
