<svg width="24" height="23" viewBox="0 0 24 23" fill="none" xmlns="http://www.w3.org/2000/svg">
<path d="M22.1621 5.47995C21.3986 5.79045 20.589 5.99437 19.7601 6.08497C20.6338 5.60447 21.2878 4.84827 21.6001 3.95727C20.7801 4.40598 19.8811 4.72045 18.9441 4.89055C18.3147 4.27135 17.4804 3.86069 16.571 3.72242C15.6616 3.58415 14.728 3.72601 13.9153 4.12596C13.1026 4.5259 12.4564 5.16151 12.0772 5.93398C11.6979 6.70645 11.6068 7.5725 11.8181 8.39748C10.1552 8.32085 8.52838 7.92351 7.04334 7.23126C5.55829 6.53902 4.24818 5.56734 3.19805 4.37932C2.82634 4.96637 2.63101 5.63371 2.63205 6.313C2.63205 7.64626 3.37005 8.82412 4.49205 9.51374C3.82806 9.49452 3.17869 9.32964 2.59805 9.03285V9.08066C2.59825 9.96861 2.93242 10.8292 3.5439 11.5164C4.15538 12.2037 5.00653 12.6754 5.95305 12.8515C5.33667 13.0051 4.69036 13.0277 4.06305 12.9177C4.32992 13.682 4.85006 14.3504 5.55064 14.8294C6.25123 15.3084 7.09718 15.5739 7.97005 15.5888C7.10253 16.2153 6.10923 16.6784 5.04693 16.9516C3.98464 17.2249 2.87418 17.303 1.77905 17.1814C3.69075 18.3118 5.91615 18.9119 8.18905 18.91C15.8821 18.91 20.0891 13.0501 20.0891 7.96808C20.0891 7.80257 20.0841 7.63523 20.0761 7.47156C20.8949 6.92737 21.6017 6.25325 22.1631 5.48087L22.1621 5.47995Z" fill="white"/>
</svg>
