<svg width="24" height="23" viewBox="0 0 24 23" fill="none" xmlns="http://www.w3.org/2000/svg">
<path d="M21.543 6.25391C22 7.89244 22 11.3129 22 11.3129C22 11.3129 22 14.7334 21.543 16.372C21.289 17.2777 20.546 17.9903 19.605 18.2312C17.896 18.6688 12 18.6688 12 18.6688C12 18.6688 6.107 18.6688 4.395 18.2312C3.45 17.9866 2.708 17.2749 2.457 16.372C2 14.7334 2 11.3129 2 11.3129C2 11.3129 2 7.89244 2.457 6.25391C2.711 5.34822 3.454 4.63561 4.395 4.39471C6.107 3.95703 12 3.95703 12 3.95703C12 3.95703 17.896 3.95703 19.605 4.39471C20.55 4.63929 21.292 5.35098 21.543 6.25391ZM10 14.5311L16 11.3129L10 8.09473V14.5311Z" fill="white"/>
</svg>
